<svg xmlns="http://www.w3.org/2000/svg" xmlns:xlink="http://www.w3.org/1999/xlink" version="1.1" x="0px" y="0px" viewBox="0 0 100 125" enable-background="new 0 0 100 100" xml:space="preserve"><rect x="89.805" y="5.754" fill="#000000" width="1.508" height="7.374"/><rect x="86.871" y="8.687" fill="#000000" width="7.375" height="1.508"/><rect x="62.766" y="5.754" fill="#000000" width="1.508" height="7.374"/><rect x="59.832" y="8.687" fill="#000000" width="7.375" height="1.508"/><rect x="35.727" y="5.754" fill="#000000" width="1.508" height="7.374"/><rect x="32.794" y="8.687" fill="#000000" width="7.374" height="1.508"/><rect x="8.687" y="5.754" fill="#000000" width="1.509" height="7.374"/><rect x="5.754" y="8.687" fill="#000000" width="7.375" height="1.508"/><rect x="89.805" y="32.793" fill="#000000" width="1.508" height="7.375"/><rect x="86.871" y="35.726" fill="#000000" width="7.375" height="1.508"/><rect x="62.766" y="32.793" fill="#000000" width="1.508" height="7.375"/><rect x="59.832" y="35.726" fill="#000000" width="7.375" height="1.508"/><rect x="35.727" y="32.793" fill="#000000" width="1.508" height="7.375"/><rect x="32.794" y="35.726" fill="#000000" width="7.374" height="1.508"/><rect x="8.687" y="32.793" fill="#000000" width="1.509" height="7.375"/><rect x="5.754" y="35.726" fill="#000000" width="7.375" height="1.508"/><rect x="89.805" y="59.832" fill="#000000" width="1.508" height="7.375"/><rect x="86.871" y="62.765" fill="#000000" width="7.375" height="1.508"/><rect x="62.766" y="59.832" fill="#000000" width="1.508" height="7.375"/><rect x="59.832" y="62.765" fill="#000000" width="7.375" height="1.508"/><rect x="35.727" y="59.832" fill="#000000" width="1.508" height="7.375"/><rect x="32.794" y="62.765" fill="#000000" width="7.374" height="1.508"/><rect x="8.687" y="59.832" fill="#000000" width="1.509" height="7.375"/><rect x="5.754" y="62.765" fill="#000000" width="7.375" height="1.508"/><rect x="89.805" y="86.871" fill="#000000" width="1.508" height="7.375"/><rect x="86.871" y="89.804" fill="#000000" width="7.375" height="1.508"/><rect x="76.285" y="73.352" fill="#000000" width="1.508" height="7.375"/><rect x="73.352" y="76.285" fill="#000000" width="7.375" height="1.508"/><rect x="49.246" y="73.352" fill="#000000" width="1.508" height="7.375"/><rect x="46.313" y="76.285" fill="#000000" width="7.375" height="1.508"/><rect x="22.207" y="73.352" fill="#000000" width="1.508" height="7.375"/><rect x="19.273" y="76.285" fill="#000000" width="7.375" height="1.508"/><rect x="76.285" y="46.313" fill="#000000" width="1.508" height="7.375"/><rect x="73.352" y="49.246" fill="#000000" width="7.375" height="1.509"/><rect x="49.246" y="46.313" fill="#000000" width="1.508" height="7.375"/><rect x="46.313" y="49.246" fill="#000000" width="7.375" height="1.509"/><rect x="22.207" y="46.313" fill="#000000" width="1.508" height="7.375"/><rect x="19.273" y="49.246" fill="#000000" width="7.375" height="1.509"/><rect x="76.285" y="19.273" fill="#000000" width="1.508" height="7.375"/><rect x="73.352" y="22.207" fill="#000000" width="7.375" height="1.508"/><rect x="49.246" y="19.273" fill="#000000" width="1.508" height="7.375"/><rect x="46.313" y="22.207" fill="#000000" width="7.375" height="1.508"/><rect x="22.207" y="19.273" fill="#000000" width="1.508" height="7.375"/><rect x="19.273" y="22.207" fill="#000000" width="7.375" height="1.508"/><rect x="62.766" y="86.871" fill="#000000" width="1.508" height="7.375"/><rect x="59.832" y="89.804" fill="#000000" width="7.375" height="1.508"/><rect x="35.727" y="86.871" fill="#000000" width="1.508" height="7.375"/><rect x="32.794" y="89.804" fill="#000000" width="7.374" height="1.508"/><rect x="8.687" y="86.871" fill="#000000" width="1.509" height="7.375"/><rect x="5.754" y="89.804" fill="#000000" width="7.375" height="1.508"/><text x="0" y="115" fill="#000000" font-size="5px" font-weight="bold" font-family="'Helvetica Neue', Helvetica, Arial-Unicode, Arial, Sans-serif">Created by Royyan Wijaya</text><text x="0" y="120" fill="#000000" font-size="5px" font-weight="bold" font-family="'Helvetica Neue', Helvetica, Arial-Unicode, Arial, Sans-serif">from the Noun Project</text></svg>