<?xml version="1.0" encoding="utf-8"?>
<!-- Generator: Adobe Illustrator 16.0.0, SVG Export Plug-In . SVG Version: 6.00 Build 0)  -->
<!DOCTYPE svg PUBLIC "-//W3C//DTD SVG 1.1//EN" "http://www.w3.org/Graphics/SVG/1.1/DTD/svg11.dtd">
<svg version="1.1" id="Layer_1" xmlns="http://www.w3.org/2000/svg" xmlns:xlink="http://www.w3.org/1999/xlink" x="0px" y="0px"
	 width="1600px" height="592px" viewBox="0 0 1600 592" enable-background="new 0 0 1600 592" xml:space="preserve">
<image display="none" overflow="visible" width="1600" height="592" xlink:href="Logo_BR_Beta.png"  transform="matrix(0.8913 0 0 0.8913 48.9946 9.5664)">
</image>
<g>
	<path fill="#1C1C50" d="M230.826,203.965c9.297,0,17.268,0.896,23.914,2.686c6.646,1.792,12.103,4.375,16.373,7.748
		c4.27,3.375,7.42,7.455,9.452,12.241c2.031,4.788,3.047,10.211,3.047,16.27c0,3.582-0.552,7.024-1.653,10.33
		c-1.102,3.306-2.789,6.389-5.062,9.246c-2.272,2.858-5.131,5.423-8.574,7.696c-3.444,2.272-7.507,4.167-12.189,5.682
		c21.555,4.271,32.333,15.53,32.333,33.78c0,6.336-1.172,12.104-3.512,17.303c-2.342,5.2-5.751,9.693-10.227,13.48
		c-4.478,3.788-9.986,6.715-16.528,8.78c-6.543,2.065-13.981,3.099-22.313,3.099h-53.407V203.965H230.826z M204.484,221.216v48.552
		h25.309c10.811,0,18.852-2.186,24.121-6.56c5.268-4.373,7.902-10.279,7.902-17.716c0-8.471-2.515-14.633-7.541-18.491
		c-5.028-3.856-12.845-5.785-23.449-5.785H204.484z M235.475,334.848c5.579,0,10.346-0.654,14.307-1.963
		c3.959-1.308,7.196-3.1,9.71-5.371c2.513-2.273,4.355-4.975,5.526-8.109c1.17-3.133,1.756-6.561,1.756-10.279
		c0-7.367-2.549-13.17-7.644-17.406c-5.098-4.235-12.982-6.353-23.656-6.353h-30.99v49.481H235.475z"/>
	<path fill="#1C1C50" d="M501.087,265.429c-0.552,0.896-1.136,1.533-1.756,1.911c-0.62,0.379-1.413,0.568-2.376,0.568
		c-1.103,0-2.324-0.378-3.667-1.137c-1.343-0.757-2.961-1.583-4.855-2.479c-1.895-0.894-4.116-1.721-6.663-2.479
		c-2.548-0.757-5.578-1.137-9.09-1.137c-2.893,0-5.526,0.362-7.902,1.085s-4.391,1.722-6.043,2.996
		c-1.653,1.275-2.928,2.789-3.822,4.545c-0.896,1.756-1.343,3.633-1.343,5.63c0,2.618,0.774,4.787,2.324,6.508
		c1.549,1.722,3.58,3.202,6.095,4.442c2.513,1.24,5.372,2.36,8.574,3.357c3.202,0.999,6.473,2.05,9.813,3.15
		c3.34,1.103,6.611,2.36,9.814,3.771c3.202,1.413,6.059,3.169,8.574,5.269c2.513,2.102,4.545,4.633,6.095,7.592
		c1.549,2.963,2.324,6.578,2.324,10.848c0,4.891-0.878,9.418-2.634,13.584c-1.756,4.167-4.338,7.766-7.748,10.795
		c-3.409,3.031-7.628,5.406-12.654,7.127c-5.028,1.721-10.779,2.583-17.251,2.583c-7.231,0-13.912-1.206-20.041-3.616
		c-6.13-2.409-11.26-5.475-15.392-9.193l4.751-7.747c0.551-0.964,1.24-1.704,2.066-2.222c0.826-0.516,1.927-0.774,3.306-0.774
		c1.307,0,2.65,0.483,4.028,1.446c1.377,0.965,3.03,2.015,4.958,3.15c1.927,1.137,4.27,2.17,7.024,3.1
		c2.754,0.93,6.198,1.395,10.33,1.395c3.443,0,6.438-0.43,8.987-1.291c2.547-0.861,4.665-2.031,6.353-3.513
		c1.687-1.479,2.944-3.185,3.771-5.113c0.826-1.927,1.24-3.96,1.24-6.095c0-2.754-0.775-5.044-2.324-6.869
		c-1.55-1.824-3.582-3.392-6.095-4.701c-2.515-1.307-5.39-2.443-8.626-3.408c-3.238-0.964-6.543-1.996-9.917-3.1
		c-3.375-1.101-6.681-2.375-9.917-3.822c-3.238-1.445-6.113-3.27-8.625-5.475c-2.515-2.203-4.545-4.889-6.095-8.057
		c-1.549-3.167-2.324-7.024-2.324-11.57c0-4.063,0.843-7.954,2.531-11.673c1.687-3.719,4.132-6.989,7.334-9.813
		c3.203-2.823,7.162-5.078,11.88-6.767c4.716-1.687,10.105-2.531,16.167-2.531c6.955,0,13.239,1.103,18.853,3.306
		c5.612,2.205,10.416,5.234,14.41,9.09L501.087,265.429z"/>
	<path fill="#1C1C50" d="M561.827,353.958c-8.471,0-14.997-2.376-19.576-7.128c-4.581-4.752-6.87-11.534-6.87-20.35v-62.807h-12.189
		c-1.172,0-2.153-0.362-2.944-1.085c-0.792-0.723-1.188-1.808-1.188-3.254v-8.161l17.044-2.376l4.545-31.3
		c0.274-1.17,0.809-2.082,1.601-2.737c0.791-0.654,1.808-0.981,3.047-0.981h10.227v35.226h29.75v14.669h-29.75v61.463
		c0,4.133,1.015,7.215,3.047,9.246c2.03,2.031,4.63,3.047,7.799,3.047c1.859,0,3.461-0.24,4.804-0.723
		c1.343-0.481,2.495-1.016,3.46-1.602c0.964-0.584,1.79-1.119,2.479-1.602c0.688-0.48,1.307-0.723,1.859-0.723
		c0.688,0,1.222,0.155,1.601,0.465c0.377,0.311,0.775,0.811,1.188,1.498l5.991,9.71c-3.306,3.031-7.231,5.372-11.776,7.024
		C571.434,353.131,566.716,353.958,561.827,353.958z"/>
	<path fill="#1C1C50" d="M771.318,352.305h-19.627c-3.926,0-6.784-1.549-8.574-4.648l-36.672-51.443
		c-1.171-1.721-2.445-2.944-3.822-3.667c-1.378-0.723-3.444-1.085-6.198-1.085h-14.359v60.844h-22.003V203.965h42.767
		c9.571,0,17.819,0.981,24.74,2.944c6.921,1.963,12.637,4.752,17.148,8.368c4.51,3.615,7.851,7.972,10.021,13.067
		c2.169,5.097,3.254,10.813,3.254,17.148c0,5.165-0.792,10.02-2.376,14.565c-1.585,4.545-3.909,8.625-6.973,12.241
		c-3.065,3.615-6.802,6.732-11.208,9.349c-4.408,2.618-9.4,4.615-14.979,5.991c2.754,1.653,5.13,3.961,7.128,6.921L771.318,352.305z
		 M702.106,275.449c5.646,0,10.622-0.688,14.927-2.066c4.303-1.376,7.903-3.322,10.795-5.836c2.893-2.513,5.062-5.509,6.508-8.987
		c1.446-3.477,2.169-7.316,2.169-11.518c0-8.538-2.807-14.979-8.419-19.317c-5.614-4.339-14.033-6.508-25.257-6.508h-20.764v54.233
		H702.106z"/>
	<path fill="#1C1C50" d="M865.528,337.326c-2.479,2.893-5.338,5.39-8.573,7.49c-3.238,2.102-6.682,3.806-10.331,5.113
		c-3.65,1.309-7.421,2.271-11.312,2.893c-3.891,0.619-7.731,0.93-11.518,0.93c-7.231,0-13.93-1.225-20.092-3.668
		c-6.164-2.443-11.502-6.025-16.012-10.743c-4.511-4.716-8.023-10.57-10.537-17.562c-2.515-6.988-3.771-15.029-3.771-24.12
		c0-7.299,1.136-14.101,3.409-20.402c2.272-6.301,5.526-11.792,9.762-16.477c4.235-4.683,9.417-8.367,15.546-11.053
		c6.129-2.686,13.016-4.029,20.66-4.029c6.405,0,12.31,1.051,17.716,3.151c5.406,2.102,10.072,5.149,13.998,9.142
		c3.926,3.995,7.007,8.919,9.245,14.772c2.237,5.854,3.357,12.535,3.357,20.04c0,3.099-0.346,5.183-1.033,6.25
		c-0.689,1.068-1.963,1.601-3.822,1.601h-68.798c0.207,6.268,1.101,11.725,2.686,16.373c1.583,4.648,3.771,8.523,6.56,11.622
		s6.111,5.407,9.969,6.921c3.855,1.516,8.16,2.273,12.912,2.273c4.476,0,8.35-0.518,11.621-1.551
		c3.271-1.032,6.096-2.15,8.471-3.356c2.376-1.204,4.373-2.325,5.992-3.357c1.617-1.033,3.047-1.55,4.287-1.55
		c1.652,0,2.926,0.62,3.822,1.859L865.528,337.326z M848.897,288.155c0-3.993-0.568-7.678-1.705-11.053
		c-1.136-3.373-2.807-6.301-5.01-8.78c-2.205-2.479-4.891-4.407-8.058-5.785c-3.168-1.376-6.817-2.066-10.95-2.066
		c-8.471,0-15.133,2.445-19.988,7.334c-4.855,4.891-7.938,11.673-9.245,20.35H848.897z"/>
	<path fill="#1C1C50" d="M978.229,251.277v7.541c0,2.479-1.549,4.029-4.648,4.648l-11.26,1.653c0.964,2.136,1.721,4.391,2.272,6.767
		c0.551,2.375,0.827,4.873,0.827,7.489c0,5.165-1,9.831-2.996,13.997c-1.998,4.167-4.752,7.731-8.264,10.692
		c-3.513,2.961-7.696,5.234-12.552,6.816c-4.854,1.586-10.175,2.377-15.96,2.377c-4.752,0-9.193-0.517-13.325-1.55
		c-2.066,1.239-3.634,2.601-4.7,4.081c-1.068,1.48-1.602,2.943-1.602,4.39c0,2.411,1.016,4.201,3.048,5.372
		c2.03,1.172,4.682,2.014,7.954,2.53c3.27,0.517,7.024,0.845,11.26,0.981c4.235,0.139,8.538,0.361,12.912,0.672
		c4.373,0.31,8.678,0.861,12.913,1.652c4.235,0.793,7.987,2.066,11.26,3.822c3.27,1.756,5.922,4.168,7.954,7.23
		c2.03,3.065,3.047,7.043,3.047,11.932c0,4.545-1.12,8.951-3.357,13.223c-2.238,4.27-5.492,8.058-9.762,11.362
		c-4.271,3.307-9.47,5.957-15.599,7.955c-6.13,1.996-13.085,2.996-20.866,2.996c-7.783,0-14.55-0.76-20.299-2.273
		c-5.751-1.516-10.536-3.547-14.358-6.094c-3.822-2.549-6.681-5.511-8.574-8.885c-1.895-3.375-2.841-6.888-2.841-10.536
		c0-5.098,1.583-9.418,4.752-12.965c3.167-3.546,7.541-6.317,13.119-8.315c-3.031-1.377-5.441-3.254-7.231-5.63
		c-1.791-2.376-2.686-5.527-2.686-9.452c0-1.515,0.274-3.081,0.826-4.7c0.551-1.617,1.395-3.236,2.531-4.855
		c1.137-1.617,2.547-3.15,4.235-4.597c1.687-1.446,3.632-2.753,5.836-3.925c-5.165-2.893-9.229-6.73-12.189-11.519
		c-2.961-4.786-4.441-10.382-4.441-16.786c0-5.165,0.997-9.814,2.996-13.946c1.996-4.132,4.768-7.678,8.315-10.64
		c3.546-2.96,7.781-5.232,12.706-6.818c4.923-1.583,10.313-2.375,16.166-2.375c9.091,0,16.906,1.895,23.449,5.681H978.229z
		 M957.775,357.78c0-2.479-0.689-4.46-2.066-5.94c-1.378-1.479-3.254-2.65-5.63-3.512c-2.376-0.86-5.148-1.48-8.315-1.859
		c-3.169-0.378-6.492-0.672-9.969-0.878c-3.479-0.207-7.042-0.396-10.691-0.568c-3.651-0.171-7.163-0.499-10.537-0.981
		c-3.581,1.791-6.525,3.961-8.832,6.508c-2.308,2.547-3.46,5.543-3.46,8.987c0,2.203,0.567,4.27,1.704,6.198
		c1.137,1.928,2.893,3.598,5.269,5.01c2.376,1.411,5.371,2.514,8.987,3.306c3.615,0.791,7.936,1.188,12.964,1.188
		c4.958,0,9.331-0.432,13.119-1.291c3.787-0.862,6.973-2.066,9.556-3.616c2.582-1.55,4.545-3.393,5.888-5.526
		C957.104,362.669,957.775,360.327,957.775,357.78z M925.648,299.932c3.58,0,6.731-0.48,9.452-1.446
		c2.72-0.964,4.992-2.324,6.818-4.08c1.823-1.756,3.202-3.874,4.132-6.353c0.93-2.479,1.395-5.199,1.395-8.161
		c0-6.059-1.844-10.898-5.526-14.514c-3.686-3.615-9.108-5.423-16.271-5.423c-7.094,0-12.483,1.808-16.166,5.423
		c-3.686,3.616-5.526,8.455-5.526,14.514c0,2.962,0.465,5.666,1.395,8.109c0.93,2.445,2.306,4.545,4.132,6.301
		c1.823,1.756,4.097,3.135,6.817,4.132C919.02,299.434,922.137,299.932,925.648,299.932z"/>
	<path fill="#1C1C50" d="M993.929,262.021c5.853-5.579,12.205-9.744,19.059-12.5c6.852-2.754,14.375-4.132,22.571-4.132
		c5.991,0,11.294,0.981,15.908,2.944c4.613,1.963,8.505,4.7,11.673,8.212c3.167,3.512,5.561,7.714,7.18,12.603
		c1.617,4.891,2.428,10.296,2.428,16.218v66.938h-8.987c-1.998,0-3.513-0.326-4.545-0.98c-1.033-0.654-1.86-1.876-2.479-3.668
		l-2.17-9.193c-2.686,2.479-5.337,4.666-7.954,6.56c-2.618,1.896-5.355,3.513-8.212,4.854c-2.858,1.344-5.906,2.36-9.143,3.048
		c-3.237,0.688-6.817,1.033-10.743,1.033c-4.132,0-8.006-0.568-11.621-1.704c-3.615-1.137-6.767-2.875-9.452-5.217
		c-2.686-2.341-4.804-5.269-6.353-8.781c-1.55-3.512-2.324-7.608-2.324-12.293c0-4.131,1.118-8.108,3.356-11.931
		c2.237-3.822,5.889-7.247,10.95-10.278c5.062-3.029,11.673-5.509,19.834-7.438c8.16-1.927,18.197-3.03,30.112-3.306v-7.645
		c0-7.918-1.688-13.842-5.063-17.768c-3.375-3.925-8.333-5.888-14.875-5.888c-4.408,0-8.109,0.552-11.104,1.653
		c-2.996,1.103-5.578,2.324-7.748,3.667c-2.169,1.343-4.063,2.566-5.682,3.667c-1.618,1.102-3.289,1.653-5.01,1.653
		c-1.378,0-2.566-0.378-3.563-1.137c-0.999-0.757-1.808-1.653-2.428-2.686L993.929,262.021z M1053.017,305.717
		c-8.196,0.275-15.151,0.913-20.867,1.91c-5.717,1-10.365,2.324-13.945,3.978c-3.582,1.653-6.164,3.6-7.748,5.837
		c-1.585,2.238-2.376,4.735-2.376,7.489c0,2.618,0.43,4.872,1.292,6.767c0.86,1.895,2.03,3.443,3.512,4.648
		c1.48,1.205,3.219,2.084,5.217,2.634c1.997,0.552,4.166,0.826,6.508,0.826c3.1,0,5.94-0.31,8.522-0.93
		c2.583-0.62,5.01-1.497,7.283-2.634c2.272-1.137,4.441-2.531,6.508-4.184c2.065-1.653,4.097-3.547,6.095-5.682V305.717z"/>
	<path fill="#1C1C50" d="M1118.817,267.495c3.374-6.885,7.438-12.292,12.189-16.218c4.752-3.925,10.468-5.888,17.148-5.888
		c2.272,0,4.424,0.258,6.456,0.775c2.03,0.517,3.805,1.292,5.32,2.324l-1.343,15.186c-0.483,1.859-1.619,2.789-3.409,2.789
		c-0.965,0-2.411-0.189-4.339-0.568c-1.929-0.377-3.995-0.568-6.198-0.568c-3.237,0-6.095,0.465-8.573,1.395
		c-2.479,0.93-4.7,2.308-6.663,4.132c-1.963,1.826-3.703,4.064-5.217,6.714c-1.516,2.652-2.928,5.666-4.235,9.039v65.699h-20.144
		V247.352h11.569c2.203,0,3.701,0.397,4.494,1.188c0.791,0.792,1.358,2.187,1.704,4.184L1118.817,267.495z"/>
	<path fill="#1C1C50" d="M1259.72,199.833v152.471h-12.189c-2.825,0-4.581-1.342-5.269-4.028l-1.756-12.086
		c-4.478,5.304-9.556,9.556-15.237,12.757c-5.682,3.203-12.241,4.805-19.679,4.805c-5.991,0-11.415-1.172-16.27-3.513
		c-4.855-2.341-9.005-5.767-12.448-10.278c-3.444-4.51-6.095-10.105-7.954-16.787c-1.859-6.679-2.789-14.358-2.789-23.035
		c0-7.782,1.033-15.013,3.099-21.693c2.066-6.679,5.063-12.464,8.987-17.354c3.926-4.889,8.678-8.729,14.256-11.518
		s11.88-4.184,18.904-4.184c6.335,0,11.725,1.033,16.166,3.099c4.442,2.066,8.419,4.994,11.932,8.781v-57.435H1259.72z
		 M1239.473,272.764c-3.306-4.339-6.87-7.368-10.691-9.09c-3.822-1.721-8.109-2.583-12.861-2.583
		c-9.229,0-16.373,3.323-21.435,9.968c-5.063,6.647-7.593,16.339-7.593,29.08c0,6.68,0.568,12.379,1.704,17.096
		c1.137,4.719,2.789,8.574,4.959,11.57c2.169,2.995,4.837,5.2,8.005,6.611c3.167,1.412,6.749,2.117,10.744,2.117
		c5.853,0,10.914-1.308,15.185-3.926c4.27-2.616,8.265-6.301,11.983-11.053V272.764z"/>
	<path fill="#1C1C50" d="M1349.797,265.429c-0.552,0.896-1.137,1.533-1.756,1.911c-0.62,0.379-1.412,0.568-2.376,0.568
		c-1.103,0-2.324-0.378-3.667-1.137c-1.343-0.757-2.962-1.583-4.855-2.479c-1.895-0.894-4.116-1.721-6.663-2.479
		c-2.549-0.757-5.578-1.137-9.09-1.137c-2.893,0-5.527,0.362-7.903,1.085s-4.39,1.722-6.043,2.996
		c-1.652,1.275-2.928,2.789-3.822,4.545c-0.896,1.756-1.343,3.633-1.343,5.63c0,2.618,0.775,4.787,2.324,6.508
		c1.55,1.722,3.58,3.202,6.095,4.442c2.514,1.24,5.372,2.36,8.574,3.357c3.202,0.999,6.473,2.05,9.813,3.15
		c3.34,1.103,6.611,2.36,9.813,3.771c3.202,1.413,6.06,3.169,8.574,5.269c2.513,2.102,4.545,4.633,6.095,7.592
		c1.55,2.963,2.324,6.578,2.324,10.848c0,4.891-0.878,9.418-2.634,13.584c-1.757,4.167-4.339,7.766-7.748,10.795
		c-3.409,3.031-7.628,5.406-12.654,7.127c-5.027,1.721-10.778,2.583-17.251,2.583c-7.231,0-13.912-1.206-20.04-3.616
		c-6.131-2.409-11.26-5.475-15.393-9.193l4.752-7.747c0.551-0.964,1.24-1.704,2.066-2.222c0.826-0.516,1.927-0.774,3.306-0.774
		c1.308,0,2.65,0.483,4.028,1.446c1.377,0.965,3.03,2.015,4.959,3.15c1.927,1.137,4.269,2.17,7.024,3.1
		c2.753,0.93,6.197,1.395,10.33,1.395c3.442,0,6.438-0.43,8.987-1.291c2.547-0.861,4.664-2.031,6.353-3.513
		c1.687-1.479,2.944-3.185,3.771-5.113c0.826-1.927,1.239-3.96,1.239-6.095c0-2.754-0.774-5.044-2.324-6.869
		c-1.549-1.824-3.581-3.392-6.095-4.701c-2.515-1.307-5.389-2.443-8.625-3.408c-3.238-0.964-6.544-1.996-9.917-3.1
		c-3.375-1.101-6.681-2.375-9.917-3.822c-3.238-1.445-6.112-3.27-8.626-5.475c-2.515-2.203-4.545-4.889-6.095-8.057
		c-1.549-3.167-2.324-7.024-2.324-11.57c0-4.063,0.843-7.954,2.531-11.673c1.687-3.719,4.132-6.989,7.334-9.813
		c3.202-2.823,7.162-5.078,11.88-6.767c4.716-1.687,10.105-2.531,16.166-2.531c6.955,0,13.239,1.103,18.853,3.306
		c5.612,2.205,10.416,5.234,14.411,9.09L1349.797,265.429z"/>
	<path fill="#1C1C50" d="M1386.777,352.305c-1.859,0-3.563-0.344-5.113-1.033c-1.549-0.688-2.892-1.635-4.028-2.84
		c-1.137-1.204-2.015-2.635-2.634-4.287c-0.62-1.652-0.93-3.443-0.93-5.371c0-1.653,0.31-3.219,0.93-4.701
		c0.619-1.48,1.497-2.771,2.634-3.873s2.495-1.979,4.08-2.635c1.584-0.653,3.34-0.98,5.269-0.98c2.203,0,4.148,0.396,5.837,1.188
		c1.687,0.793,3.099,1.895,4.235,3.305c1.136,1.413,1.979,3.048,2.53,4.908c0.551,1.859,0.826,3.857,0.826,5.99
		c0,3.1-0.448,6.371-1.343,9.814c-0.896,3.442-2.204,6.852-3.925,10.227c-1.723,3.373-3.858,6.645-6.405,9.813
		c-2.548,3.167-5.44,6.095-8.677,8.781l-3.409-3.203c-1.033-0.966-1.55-2.032-1.55-3.202c0-0.482,0.155-0.981,0.465-1.498
		c0.311-0.517,0.706-1.017,1.188-1.498c0.688-0.758,1.583-1.756,2.686-2.996c1.101-1.238,2.186-2.669,3.254-4.287
		c1.067-1.618,2.066-3.408,2.996-5.371s1.601-4.047,2.015-6.25H1386.777z"/>
</g>
<path fill="#1C1B4F" d="M312.749,333.393c-3.474-6.259-4.561-13.833-2.443-21.262c2.117-7.428,7.039-13.288,13.29-16.776
	l44.456-25.591c3.675-1.937,8.086-2.517,12.411-1.284c8.914,2.54,14.078,11.822,11.538,20.734c-1.232,4.326-4.058,7.771-7.653,9.876
	l-44.449,25.587c-1.303,0.815-2.924,1.097-4.516,0.644c-2.969-0.847-4.692-3.942-3.846-6.911c0.454-1.593,1.557-2.831,2.94-3.501
	l44.463-25.596c1.12-0.704,2.002-1.82,2.396-3.202c0.847-2.97-0.876-6.066-3.845-6.912c-1.377-0.392-2.778-0.233-3.972,0.346
	l-44.503,25.572c-3.748,2.09-6.7,5.61-7.969,10.064c-2.542,8.919,2.628,18.208,11.546,20.749c4.464,1.272,9.021,0.611,12.78-1.481
	l44.457-25.591c6.102-3.495,10.907-9.291,12.99-16.601c4.232-14.851-4.379-30.327-19.229-34.559
	c-7.305-2.082-14.763-1.055-20.957,2.292l-41.017,22.932c-1.302,0.815-2.924,1.097-4.516,0.643
	c-2.969-0.846-4.692-3.943-3.846-6.911c0.454-1.593,1.558-2.831,2.94-3.501l40.978-22.954c8.757-4.872,19.37-6.402,29.768-3.438
	c20.794,5.926,32.848,27.588,26.921,48.383c-2.963,10.397-9.864,18.608-18.616,23.482l-44.458,25.597
	c-6.253,3.476-13.829,4.568-21.251,2.453c-7.423-2.115-13.293-7.047-16.775-13.296L312.749,333.393z"/>
<path fill-rule="evenodd" clip-rule="evenodd" fill="#1C1C50" d="M1000.872,377.981h341.709c9.729,0,17.613,8.196,17.613,18.306
	v89.688c0,10.105-7.885,18.302-17.613,18.302h-341.709c-9.725,0-17.612-8.196-17.612-18.302v-89.688
	C983.26,386.178,991.147,377.981,1000.872,377.981z"/>
<g>
	<path fill="#FFFFFF" d="M1024.622,465.484v-49.566h-8.126v-8.27h22.003c6.051,0,10.589,0.365,13.615,1.093
		c3.024,0.729,5.694,2.575,8.008,5.537c2.312,2.963,3.469,6.439,3.469,10.431c0,3.074-0.689,5.846-2.067,8.316
		c-1.378,2.472-3.397,4.342-6.059,5.608c3.675,1.268,6.502,3.366,8.482,6.297c1.979,2.931,2.97,6.281,2.97,10.051
		c0,3.264-0.736,6.226-2.209,8.887c-1.474,2.661-3.431,4.721-5.869,6.178c-2.44,1.458-5.109,2.44-8.008,2.946
		c-2.899,0.508-6.852,0.761-11.857,0.761h-22.478v-8.269H1024.622z M1034.602,435.164h6.226c4.753,0,8.071-0.831,9.956-2.495
		c1.885-1.663,2.828-4.11,2.828-7.342c0-6.273-4.262-9.409-12.784-9.409h-6.226V435.164z M1034.602,465.484h3.755
		c4.91,0,8.506-0.245,10.787-0.737c2.281-0.49,4.143-1.646,5.584-3.469c1.441-1.821,2.162-4.158,2.162-7.01
		c0-2.598-0.688-4.776-2.066-6.534c-1.379-1.759-3.153-2.931-5.323-3.517s-5.235-0.88-9.195-0.88h-5.703V465.484z"/>
	<path fill="#FFFFFF" d="M1099.786,465.484v-49.566h-8.555v-8.27h54.937v19.912h-8.174v-11.643h-28.229v19.674h24.569v8.27h-24.569
		v21.623h28.229v-12.023h8.174v20.292h-54.937v-8.269H1099.786z"/>
	<path fill="#FFFFFF" d="M1189.872,465.484v-49.566h-13.639v16.87h-8.174v-25.14h53.559v25.14h-8.174v-16.87h-13.592v49.566h8.602
		v8.269h-27.041v-8.269H1189.872z"/>
	<path fill="#FFFFFF" d="M1283.929,450.515h-23.814l-5.058,14.97h8.031v8.269h-26.043v-8.269h7.999l18.049-50.375h-7.989v-7.461
		h33.789v7.461h-8.263l18.499,50.375h7.395v8.269h-25.899v-8.269h8.222L1283.929,450.515z M1281.437,442.768l-8.797-27.658h-0.902
		l-9.158,27.658H1281.437z"/>
</g>
</svg>
